<mxfile host="app.diagrams.net" modified="2023-06-21T11:22:00.974Z" agent="Mozilla/5.0 (Windows NT 10.0; Win64; x64) AppleWebKit/537.36 (KHTML, like Gecko) Chrome/112.0.0.0 YaBrowser/23.5.2.625 Yowser/2.5 Safari/537.36" version="21.5.0" etag="QpFUkCBYCJVgxVBNSQDo" type="github">
  <diagram name="Страница 1" id="-IX3aovqQ2sjVtwvTUW-">
    <mxGraphModel>
      <root>
        <mxCell id="0" />
        <mxCell id="1" parent="0" />
      </root>
    </mxGraphModel>
  </diagram>
</mxfile>
